<svg width="13" height="11" viewBox="0 0 13 11" fill="none" xmlns="http://www.w3.org/2000/svg">
<path d="M12.802 1.30101C12.802 1.51345 12.7176 1.71719 12.5674 1.86741L4.56741 9.86741C4.4931 9.94191 4.40482 10.001 4.30762 10.0414C4.21043 10.0817 4.10624 10.1024 4.00101 10.1024C3.89578 10.1024 3.79159 10.0817 3.6944 10.0414C3.59721 10.001 3.50892 9.94191 3.43461 9.86741L0.234611 6.66741C0.0843921 6.51719 0 6.31345 0 6.10101C0 5.88857 0.0843921 5.68483 0.234611 5.53461C0.384829 5.38439 0.58857 5.3 0.801011 5.3C1.01345 5.3 1.21719 5.38439 1.36741 5.53461L4.00101 8.16981L11.4346 0.734611C11.5848 0.584392 11.7886 0.5 12.001 0.5C12.2135 0.5 12.4172 0.584392 12.5674 0.734611C12.7176 0.884829 12.802 1.08857 12.802 1.30101Z" fill="white"/>
</svg>
