<svg width="479" height="172" viewBox="0 0 479 172" fill="none" xmlns="http://www.w3.org/2000/svg">
<path d="M188.507 170.883L188.507 97.5748L225.161 97.5748L225.162 170.883L188.507 170.883Z" fill="#0A0A04"/>
<path d="M225.154 34.7391L225.154 108.047L188.5 108.047L188.5 34.7391L225.154 34.7391Z" fill="#0A0A04"/>
<path d="M26.5595 0.459412L0 35.8721H88.5318L110.665 0.459412H26.5595Z" fill="#0A0A04"/>
<path d="M336.424 0.459595L309.864 35.8723H398.396L420.529 0.459595H336.424Z" fill="#0A0A04"/>
<path d="M336.424 168.67L309.864 133.258H398.396L420.529 168.67H336.424Z" fill="#0A0A04"/>
<path d="M309.864 35.8734L345.277 9.31391L345.277 97.8457L309.864 119.979L309.864 35.8734Z" fill="#0A0A04"/>
<path d="M447.083 0.459595V35.8723H367.404L345.271 0.459595H447.083Z" fill="#0A0A04"/>
<path d="M451.51 71.2863L478.07 71.2863L478.07 106.699L451.51 133.259L451.51 71.2863Z" fill="#0A0A04"/>
<path d="M478.073 97.8448L478.073 71.2853L442.661 71.2852L416.101 97.8448L478.073 97.8448Z" fill="#0A0A04"/>
<path d="M424.951 168.67L451.51 133.258H367.405L345.272 168.67H424.951Z" fill="#0A0A04"/>
<path d="M309.864 133.258L345.277 155.391L345.277 66.8589L309.864 44.7259L309.864 133.258Z" fill="#0A0A04"/>
<path d="M221.33 0.459595L194.771 35.8723H283.303V0.459595H221.33Z" fill="#0A0A04"/>
<path d="M194.773 0.459595L221.333 35.8723H132.801V0.459595H194.773Z" fill="#0A0A04"/>
<path d="M73.0412 27.0191L37.6285 0.459593L37.6285 164.243L73.0413 164.243L73.0412 27.0191Z" fill="#0A0A04"/>
<path d="M26.5595 136.511L0 171.923H88.5318L110.665 136.511H26.5595Z" fill="#0A0A04"/>
</svg>
